<svg width="20" height="73" viewBox="0 0 20 73" fill="none" xmlns="http://www.w3.org/2000/svg">
<path d="M18.444 70.4698C11.7681 72.4053 8.0434 72.3486 1.44397 70.4698V25.4698C3.20255 22.0026 4.50496 20.5699 7.44397 18.9698V10.4698H12.444V18.9698C15.6884 20.6518 17.0112 22.055 18.444 25.4698V70.4698Z" fill="#7A1616"/>
<path d="M7.44446 18.97L7.44396 1.96973C7.44396 0.969727 12.444 0.969727 12.444 1.96973L12.4435 18.97C14.9442 19.6129 17.944 22.97 18.4431 26.3271C18.4431 28.8659 19.444 64.9698 18.4431 70.47C16.444 71.9697 9.94397 71.9697 9.94397 71.9697C9.94397 71.9697 2.94397 71.9697 1.44484 70.4701C0.443967 64.9698 1.4448 28.8659 1.44484 26.3271C1.94397 22.97 4.94373 19.6129 7.44446 18.97Z" stroke="black" stroke-width="2" stroke-linecap="round"/>
<path d="M18.444 33.4698C11.4328 35.7574 8.11313 35.7895 1.44397 33.4698V49.4698C8.10451 52.1832 11.4432 52.1375 18.444 49.4698V33.4698Z" fill="#C59E9E" stroke="black" stroke-width="2"/>
<path d="M12.7236 10.4698C12.7236 11.4698 7.1203 11.4698 7.1203 10.4698V2.11109C7.1203 0.629635 12.7236 0.62964 12.7236 2.11108V10.4698Z" fill="#C72424" stroke="black" stroke-width="2"/>
</svg>
